<svg xmlns="http://www.w3.org/2000/svg" viewBox="0 0 1200 630">
  <defs>
    <!-- Photo: professional data center interior, perspective shot of server rows -->
    <linearGradient id="dcbg" x1="0" y1="0" x2="0" y2="1">
      <stop offset="0%" stop-color="#00060f"/>
      <stop offset="50%" stop-color="#010d1e"/>
      <stop offset="100%" stop-color="#040f22"/>
    </linearGradient>
    <radialGradient id="aisleglow" cx="50%" cy="52%" r="45%">
      <stop offset="0%" stop-color="#22d3ee" stop-opacity="0.35"/>
      <stop offset="40%" stop-color="#0ea5e9" stop-opacity="0.12"/>
      <stop offset="100%" stop-color="#00060f" stop-opacity="0"/>
    </radialGradient>
    <radialGradient id="floorglow" cx="50%" cy="95%" r="55%">
      <stop offset="0%" stop-color="#22d3ee" stop-opacity="0.2"/>
      <stop offset="100%" stop-color="#00060f" stop-opacity="0"/>
    </radialGradient>
    <radialGradient id="vgn" cx="50%" cy="50%" r="72%">
      <stop offset="0%" stop-color="transparent"/>
      <stop offset="100%" stop-color="rgba(0,0,0,0.75)"/>
    </radialGradient>
    <linearGradient id="tov" x1="0" y1="0" x2="0" y2="1">
      <stop offset="0%" stop-color="rgba(0,0,0,0)"/>
      <stop offset="30%" stop-color="rgba(0,0,0,0.5)"/>
      <stop offset="100%" stop-color="rgba(0,0,0,0.93)"/>
    </linearGradient>
    <filter id="ts"><feDropShadow dx="0" dy="2" stdDeviation="8" flood-color="rgba(0,0,0,1)"/></filter>
    <filter id="ledglow"><feGaussianBlur stdDeviation="4" result="b"/><feMerge><feMergeNode in="b"/><feMergeNode in="SourceGraphic"/></feMerge></filter>
    <filter id="blur12"><feGaussianBlur stdDeviation="12"/></filter>
  </defs>

  <rect width="1200" height="630" fill="url(#dcbg)"/>
  <rect width="1200" height="630" fill="url(#aisleglow)"/>

  <!-- Ceiling perspective lines (vanishing point center) -->
  <g stroke="#0c2040" stroke-width="1" opacity="0.6">
    <line x1="600" y1="280" x2="0" y2="0"/><line x1="600" y1="280" x2="200" y2="0"/>
    <line x1="600" y1="280" x2="400" y2="0"/><line x1="600" y1="280" x2="600" y2="0"/>
    <line x1="600" y1="280" x2="800" y2="0"/><line x1="600" y1="280" x2="1000" y2="0"/>
    <line x1="600" y1="280" x2="1200" y2="0"/>
  </g>
  <!-- Ceiling cable trays -->
  <g stroke="#1e3a5f" stroke-width="4" opacity="0.5">
    <line x1="480" y1="0" x2="480" y2="280"/><line x1="560" y1="0" x2="560" y2="280"/>
    <line x1="640" y1="0" x2="640" y2="280"/><line x1="720" y1="0" x2="720" y2="280"/>
    <line x1="480" y1="60" x2="720" y2="60"/>
  </g>

  <!-- Floor perspective lines -->
  <g stroke="#0c2040" stroke-width="1" opacity="0.4">
    <line x1="600" y1="520" x2="0" y2="630"/><line x1="600" y1="520" x2="200" y2="630"/>
    <line x1="600" y1="520" x2="400" y2="630"/><line x1="600" y1="520" x2="600" y2="630"/>
    <line x1="600" y1="520" x2="800" y2="630"/><line x1="600" y1="520" x2="1000" y2="630"/>
    <line x1="600" y1="520" x2="1200" y2="630"/>
  </g>

  <!-- LEFT SERVER ROW -->
  <!-- Rack 1 (closest, largest) -->
  <rect x="55" y="150" width="100" height="420" rx="3" fill="#050f1e" stroke="#1e3a8a" stroke-width="2"/>
  <g fill="#0f2d5a">
    <rect x="63" y="165" width="84" height="12" rx="1"/><rect x="63" y="184" width="84" height="12" rx="1"/>
    <rect x="63" y="203" width="84" height="12" rx="1"/><rect x="63" y="222" width="84" height="12" rx="1"/>
    <rect x="63" y="241" width="84" height="12" rx="1"/><rect x="63" y="260" width="84" height="12" rx="1"/>
    <rect x="63" y="279" width="84" height="12" rx="1"/><rect x="63" y="298" width="84" height="12" rx="1"/>
    <rect x="63" y="317" width="84" height="12" rx="1"/><rect x="63" y="336" width="84" height="12" rx="1"/>
    <rect x="63" y="355" width="84" height="12" rx="1"/><rect x="63" y="374" width="84" height="12" rx="1"/>
    <rect x="63" y="393" width="84" height="12" rx="1"/><rect x="63" y="412" width="84" height="12" rx="1"/>
    <rect x="63" y="431" width="84" height="12" rx="1"/>
  </g>
  <g fill="#22d3ee" filter="url(#ledglow)">
    <circle cx="138" cy="171" r="3.5"/><circle cx="138" cy="190" r="3.5"/><circle cx="138" cy="209" r="3.5"/>
    <circle cx="138" cy="228" r="3.5"/><circle cx="138" cy="247" r="3.5"/><circle cx="138" cy="266" r="3.5"/>
    <circle cx="138" cy="285" r="3.5"/>
  </g>
  <g fill="#34d399" filter="url(#ledglow)">
    <circle cx="138" cy="304" r="3.5"/><circle cx="138" cy="323" r="3.5"/><circle cx="138" cy="342" r="3.5"/>
    <circle cx="138" cy="361" r="3.5"/><circle cx="138" cy="380" r="3.5"/>
  </g>
  <circle cx="138" cy="399" r="3.5" fill="#fbbf24" filter="url(#ledglow)"/>
  <circle cx="138" cy="418" r="3.5" fill="#fbbf24" filter="url(#ledglow)"/>

  <!-- Rack 2 (perspective shrink) -->
  <rect x="175" y="175" width="88" height="390" rx="2" fill="#050f1e" stroke="#1e40af" stroke-width="1.5"/>
  <g fill="#0d2548"><rect x="182" y="188" width="74" height="10" rx="1"/><rect x="182" y="205" width="74" height="10" rx="1"/><rect x="182" y="222" width="74" height="10" rx="1"/><rect x="182" y="239" width="74" height="10" rx="1"/><rect x="182" y="256" width="74" height="10" rx="1"/><rect x="182" y="273" width="74" height="10" rx="1"/><rect x="182" y="290" width="74" height="10" rx="1"/><rect x="182" y="307" width="74" height="10" rx="1"/><rect x="182" y="324" width="74" height="10" rx="1"/><rect x="182" y="341" width="74" height="10" rx="1"/><rect x="182" y="358" width="74" height="10" rx="1"/><rect x="182" y="375" width="74" height="10" rx="1"/></g>
  <g fill="#22d3ee" filter="url(#ledglow)"><circle cx="247" cy="193" r="3"/><circle cx="247" cy="210" r="3"/><circle cx="247" cy="227" r="3"/><circle cx="247" cy="244" r="3"/><circle cx="247" cy="261" r="3"/><circle cx="247" cy="278" r="3"/></g>
  <g fill="#34d399" filter="url(#ledglow)"><circle cx="247" cy="295" r="3"/><circle cx="247" cy="312" r="3"/><circle cx="247" cy="329" r="3"/></g>

  <!-- Rack 3 (deeper, more transparent) -->
  <rect x="283" y="200" width="76" height="360" rx="2" fill="#050f1e" stroke="#1e40af" stroke-width="1.5"/>
  <g fill="#0a1e3a"><rect x="289" y="212" width="64" height="9" rx="1"/><rect x="289" y="228" width="64" height="9" rx="1"/><rect x="289" y="244" width="64" height="9" rx="1"/><rect x="289" y="260" width="64" height="9" rx="1"/><rect x="289" y="276" width="64" height="9" rx="1"/><rect x="289" y="292" width="64" height="9" rx="1"/><rect x="289" y="308" width="64" height="9" rx="1"/><rect x="289" y="324" width="64" height="9" rx="1"/><rect x="289" y="340" width="64" height="9" rx="1"/><rect x="289" y="356" width="64" height="9" rx="1"/></g>
  <g fill="#22d3ee" filter="url(#ledglow)"><circle cx="346" cy="216" r="2.5"/><circle cx="346" cy="232" r="2.5"/><circle cx="346" cy="248" r="2.5"/><circle cx="346" cy="264" r="2.5"/></g>

  <!-- CENTER AISLE glow -->
  <rect x="390" y="0" width="420" height="630" fill="#22d3ee" opacity="0.03" filter="url(#blur12)"/>
  <rect x="455" y="280" width="290" height="350" fill="url(#floorglow)"/>

  <!-- RIGHT SERVER ROW (mirror) -->
  <rect x="1045" y="150" width="100" height="420" rx="3" fill="#050f1e" stroke="#1e3a8a" stroke-width="2"/>
  <g fill="#0f2d5a"><rect x="1053" y="165" width="84" height="12" rx="1"/><rect x="1053" y="184" width="84" height="12" rx="1"/><rect x="1053" y="203" width="84" height="12" rx="1"/><rect x="1053" y="222" width="84" height="12" rx="1"/><rect x="1053" y="241" width="84" height="12" rx="1"/><rect x="1053" y="260" width="84" height="12" rx="1"/><rect x="1053" y="279" width="84" height="12" rx="1"/><rect x="1053" y="298" width="84" height="12" rx="1"/><rect x="1053" y="317" width="84" height="12" rx="1"/><rect x="1053" y="336" width="84" height="12" rx="1"/><rect x="1053" y="355" width="84" height="12" rx="1"/><rect x="1053" y="374" width="84" height="12" rx="1"/><rect x="1053" y="393" width="84" height="12" rx="1"/><rect x="1053" y="412" width="84" height="12" rx="1"/></g>
  <g fill="#34d399" filter="url(#ledglow)"><circle cx="1057" cy="171" r="3.5"/><circle cx="1057" cy="190" r="3.5"/><circle cx="1057" cy="209" r="3.5"/><circle cx="1057" cy="228" r="3.5"/><circle cx="1057" cy="247" r="3.5"/><circle cx="1057" cy="266" r="3.5"/><circle cx="1057" cy="285" r="3.5"/></g>
  <g fill="#22d3ee" filter="url(#ledglow)"><circle cx="1057" cy="304" r="3.5"/><circle cx="1057" cy="323" r="3.5"/><circle cx="1057" cy="342" r="3.5"/></g>
  <circle cx="1057" cy="361" r="3.5" fill="#fbbf24" filter="url(#ledglow)"/>

  <rect x="937" y="175" width="88" height="390" rx="2" fill="#050f1e" stroke="#1e40af" stroke-width="1.5"/>
  <g fill="#0d2548"><rect x="944" y="188" width="74" height="10" rx="1"/><rect x="944" y="205" width="74" height="10" rx="1"/><rect x="944" y="222" width="74" height="10" rx="1"/><rect x="944" y="239" width="74" height="10" rx="1"/><rect x="944" y="256" width="74" height="10" rx="1"/><rect x="944" y="273" width="74" height="10" rx="1"/><rect x="944" y="290" width="74" height="10" rx="1"/><rect x="944" y="307" width="74" height="10" rx="1"/><rect x="944" y="324" width="74" height="10" rx="1"/><rect x="944" y="341" width="74" height="10" rx="1"/><rect x="944" y="358" width="74" height="10" rx="1"/></g>
  <g fill="#22d3ee" filter="url(#ledglow)"><circle cx="944" cy="193" r="3"/><circle cx="944" cy="210" r="3"/><circle cx="944" cy="227" r="3"/><circle cx="944" cy="244" r="3"/></g>
  <g fill="#34d399" filter="url(#ledglow)"><circle cx="944" cy="261" r="3"/><circle cx="944" cy="278" r="3"/><circle cx="944" cy="295" r="3"/></g>

  <rect x="841" y="200" width="76" height="360" rx="2" fill="#050f1e" stroke="#1e40af" stroke-width="1.5"/>
  <g fill="#0a1e3a"><rect x="847" y="212" width="64" height="9" rx="1"/><rect x="847" y="228" width="64" height="9" rx="1"/><rect x="847" y="244" width="64" height="9" rx="1"/><rect x="847" y="260" width="64" height="9" rx="1"/><rect x="847" y="276" width="64" height="9" rx="1"/><rect x="847" y="292" width="64" height="9" rx="1"/><rect x="847" y="308" width="64" height="9" rx="1"/></g>
  <g fill="#34d399" filter="url(#ledglow)"><circle cx="910" cy="216" r="2.5"/><circle cx="910" cy="232" r="2.5"/><circle cx="910" cy="248" r="2.5"/></g>

  <!-- Vignette -->
  <rect width="1200" height="630" fill="url(#vgn)"/>

  <!-- Text overlay -->
  <rect x="0" y="320" width="1200" height="310" fill="url(#tov)"/>

  <!-- Category badge -->
  <rect x="40" y="36" width="165" height="38" rx="19" fill="#0369a1"/>
  <text x="122" y="61" font-family="sans-serif" font-size="15" font-weight="700" fill="white" text-anchor="middle">国内DC動向</text>

  <!-- Cyan accent bar -->
  <rect x="40" y="415" width="5" height="125" rx="2.5" fill="#22d3ee"/>

  <!-- Kicker -->
  <text x="60" y="473" font-family="sans-serif" font-size="52" font-weight="900" fill="#22d3ee" filter="url(#ts)">DC選定の新常識 2026</text>

  <!-- Main headline -->
  <text x="60" y="547" font-family="sans-serif" font-size="36" font-weight="900" fill="white" filter="url(#ts)">コロケーションDC完全選定ガイド</text>

  <!-- Sub-line -->
  <text x="60" y="596" font-family="sans-serif" font-size="17" fill="#67e8f9" filter="url(#ts)">Tier認定・PUE・SLA・立地 — 失敗しない選び方チェックリスト</text>

  <text x="1160" y="618" font-family="sans-serif" font-size="13" fill="rgba(255,255,255,0.4)" text-anchor="end">DCトレンド研究</text>
</svg>
