<svg xmlns="http://www.w3.org/2000/svg" viewBox="0 0 1200 630">
  <rect width="1200" height="630" fill="#0f172a"/>
  <g stroke="#1e293b" stroke-width="1">
    <line x1="0" y1="157" x2="1200" y2="157"/><line x1="0" y1="315" x2="1200" y2="315"/>
    <line x1="0" y1="472" x2="1200" y2="472"/>
    <line x1="300" y1="0" x2="300" y2="630"/><line x1="600" y1="0" x2="600" y2="630"/>
    <line x1="900" y1="0" x2="900" y2="630"/>
  </g>
  <rect x="0" y="0" width="12" height="630" fill="#16a34a"/>
  <!-- leaf / circle motif -->
  <circle cx="600" cy="280" r="150" fill="none" stroke="#16a34a" stroke-width="2.5" opacity="0.6"/>
  <circle cx="600" cy="280" r="100" fill="#14532d" opacity="0.4"/>
  <!-- wind turbines -->
  <line x1="380" y1="460" x2="380" y2="180" stroke="#334155" stroke-width="4"/>
  <ellipse cx="380" cy="175" rx="8" ry="8" fill="#4ade80"/>
  <line x1="380" y1="175" x2="340" y2="100" stroke="#4ade80" stroke-width="3"/>
  <line x1="380" y1="175" x2="430" y2="130" stroke="#4ade80" stroke-width="3"/>
  <line x1="380" y1="175" x2="360" y2="240" stroke="#4ade80" stroke-width="3"/>
  <line x1="820" y1="460" x2="820" y2="200" stroke="#334155" stroke-width="4"/>
  <ellipse cx="820" cy="195" rx="8" ry="8" fill="#4ade80"/>
  <line x1="820" y1="195" x2="780" y2="120" stroke="#4ade80" stroke-width="3"/>
  <line x1="820" y1="195" x2="870" y2="150" stroke="#4ade80" stroke-width="3"/>
  <line x1="820" y1="195" x2="800" y2="260" stroke="#4ade80" stroke-width="3"/>
  <!-- solar panels hint -->
  <rect x="510" y="390" width="60" height="40" rx="2" fill="#1e40af" stroke="#3b82f6" stroke-width="1.5"/>
  <rect x="580" y="390" width="60" height="40" rx="2" fill="#1e40af" stroke="#3b82f6" stroke-width="1.5"/>
  <rect x="650" y="390" width="60" height="40" rx="2" fill="#1e40af" stroke="#3b82f6" stroke-width="1.5"/>
  <!-- RE100 text hint -->
  <text x="560" y="295" font-family="sans-serif" font-size="48" font-weight="900" fill="#4ade80" opacity="0.4">RE100</text>
  <rect x="0" y="555" width="1200" height="75" fill="#0f172a" opacity="0.9"/>
  <rect x="0" y="553" width="1200" height="3" fill="#16a34a"/>
  <text x="40" y="600" font-family="sans-serif" font-size="28" font-weight="700" fill="#f1f5f9">カーボンニュートラル RE100・PPA・CFE最前線</text>
  <text x="40" y="618" font-family="sans-serif" font-size="16" fill="#64748b">電力・冷却技術 ｜ DCトレンド研究</text>
</svg>
