<svg xmlns="http://www.w3.org/2000/svg" viewBox="0 0 1200 630">
  <rect width="1200" height="630" fill="#0f172a"/>
  <g stroke="#1e293b" stroke-width="1">
    <line x1="0" y1="157" x2="1200" y2="157"/><line x1="0" y1="315" x2="1200" y2="315"/>
    <line x1="0" y1="472" x2="1200" y2="472"/>
    <line x1="300" y1="0" x2="300" y2="630"/><line x1="600" y1="0" x2="600" y2="630"/>
    <line x1="900" y1="0" x2="900" y2="630"/>
  </g>
  <rect x="0" y="0" width="12" height="630" fill="#2563eb"/>
  <!-- bar chart -->
  <rect x="300" y="380" width="100" height="120" fill="#1d4ed8" opacity="0.7"/>
  <rect x="440" y="300" width="100" height="200" fill="#2563eb" opacity="0.8"/>
  <rect x="580" y="220" width="100" height="280" fill="#3b82f6" opacity="0.85"/>
  <rect x="720" y="140" width="100" height="360" fill="#60a5fa" opacity="0.9"/>
  <rect x="860" y="100" width="100" height="400" fill="#93c5fd"/>
  <!-- trend line -->
  <polyline points="350,375 490,295 630,215 770,135 910,95" fill="none" stroke="#fbbf24" stroke-width="3"/>
  <circle cx="350" cy="375" r="7" fill="#fbbf24"/>
  <circle cx="490" cy="295" r="7" fill="#fbbf24"/>
  <circle cx="630" cy="215" r="7" fill="#fbbf24"/>
  <circle cx="770" cy="135" r="7" fill="#fbbf24"/>
  <circle cx="910" cy="95" r="7" fill="#fbbf24"/>
  <!-- axis -->
  <line x1="270" y1="510" x2="1000" y2="510" stroke="#334155" stroke-width="2"/>
  <line x1="270" y1="100" x2="270" y2="510" stroke="#334155" stroke-width="2"/>
  <rect x="0" y="555" width="1200" height="75" fill="#0f172a" opacity="0.9"/>
  <rect x="0" y="553" width="1200" height="3" fill="#2563eb"/>
  <text x="40" y="600" font-family="sans-serif" font-size="28" font-weight="700" fill="#f1f5f9">国内データセンター市場 2026年最新動向</text>
  <text x="40" y="618" font-family="sans-serif" font-size="16" fill="#64748b">国内DC動向 ｜ DCトレンド研究</text>
</svg>
