<svg xmlns="http://www.w3.org/2000/svg" viewBox="0 0 1200 630">
  <rect width="1200" height="630" fill="#0f172a"/>
  <g stroke="#1e293b" stroke-width="1">
    <line x1="0" y1="157" x2="1200" y2="157"/><line x1="0" y1="315" x2="1200" y2="315"/>
    <line x1="0" y1="472" x2="1200" y2="472"/>
    <line x1="300" y1="0" x2="300" y2="630"/><line x1="600" y1="0" x2="600" y2="630"/>
    <line x1="900" y1="0" x2="900" y2="630"/>
  </g>
  <rect x="0" y="0" width="12" height="630" fill="#2563eb"/>
  <!-- globe -->
  <circle cx="600" cy="290" r="180" fill="none" stroke="#3b82f6" stroke-width="2.5" opacity="0.8"/>
  <ellipse cx="600" cy="290" rx="180" ry="70" fill="none" stroke="#3b82f6" stroke-width="1.5" opacity="0.5"/>
  <ellipse cx="600" cy="290" rx="70" ry="180" fill="none" stroke="#3b82f6" stroke-width="1.5" opacity="0.5"/>
  <ellipse cx="600" cy="290" rx="180" ry="110" fill="none" stroke="#1e40af" stroke-width="1" opacity="0.4"/>
  <!-- connection nodes -->
  <circle cx="600" cy="110" r="10" fill="#2563eb"/>
  <circle cx="440" cy="200" r="8" fill="#60a5fa"/>
  <circle cx="760" cy="200" r="8" fill="#60a5fa"/>
  <circle cx="380" cy="340" r="8" fill="#3b82f6"/>
  <circle cx="820" cy="340" r="8" fill="#3b82f6"/>
  <circle cx="600" cy="470" r="10" fill="#fbbf24"/>
  <!-- connection lines -->
  <line x1="600" y1="110" x2="440" y2="200" stroke="#60a5fa" stroke-width="1.5" opacity="0.6"/>
  <line x1="600" y1="110" x2="760" y2="200" stroke="#60a5fa" stroke-width="1.5" opacity="0.6"/>
  <line x1="440" y1="200" x2="380" y2="340" stroke="#3b82f6" stroke-width="1.5" opacity="0.5"/>
  <line x1="760" y1="200" x2="820" y2="340" stroke="#3b82f6" stroke-width="1.5" opacity="0.5"/>
  <line x1="380" y1="340" x2="600" y2="470" stroke="#fbbf24" stroke-width="2" opacity="0.7"/>
  <line x1="820" y1="340" x2="600" y2="470" stroke="#fbbf24" stroke-width="2" opacity="0.7"/>
  <rect x="0" y="555" width="1200" height="75" fill="#0f172a" opacity="0.9"/>
  <rect x="0" y="553" width="1200" height="3" fill="#2563eb"/>
  <text x="40" y="600" font-family="sans-serif" font-size="28" font-weight="700" fill="#f1f5f9">MicrosoftのAI向け日本DC投資 4400億円</text>
  <text x="40" y="618" font-family="sans-serif" font-size="16" fill="#64748b">海外DC動向 ｜ DCトレンド研究</text>
</svg>
